<?xml version="1.0" encoding="UTF-8" standalone="no"?>
<!-- Created with Inkscape (http://www.inkscape.org/) -->

<svg
   width="210mm"
   height="297mm"
   viewBox="0 0 210 297"
   version="1.1"
   id="svg1"
   xml:space="preserve"
   inkscape:version="1.3.2 (091e20ef0f, 2023-11-25)"
   sodipodi:docname="icons.svg"
   xmlns:inkscape="http://www.inkscape.org/namespaces/inkscape"
   xmlns:sodipodi="http://sodipodi.sourceforge.net/DTD/sodipodi-0.dtd"
   xmlns="http://www.w3.org/2000/svg"
   xmlns:svg="http://www.w3.org/2000/svg"><sodipodi:namedview
     id="namedview1"
     pagecolor="#505050"
     bordercolor="#eeeeee"
     borderopacity="1"
     inkscape:showpageshadow="0"
     inkscape:pageopacity="0"
     inkscape:pagecheckerboard="0"
     inkscape:deskcolor="#505050"
     inkscape:document-units="mm"
     inkscape:zoom="1.6947829"
     inkscape:cx="391.20054"
     inkscape:cy="582.37546"
     inkscape:window-width="1920"
     inkscape:window-height="1016"
     inkscape:window-x="0"
     inkscape:window-y="27"
     inkscape:window-maximized="1"
     inkscape:current-layer="layer1" /><defs
     id="defs1" /><g
     inkscape:label="Layer 1"
     inkscape:groupmode="layer"
     id="layer1"><path
       style="fill:#000000"
       d="m 107.13427,149.19759 c 0.76782,0.76782 1.85053,0.81312 2.29828,0.0962 0.18175,-0.29104 0.53995,-0.52916 0.79599,-0.52916 0.28913,0 0.46552,-0.20051 0.46552,-0.52917 0,-0.29104 -0.13005,-0.52917 -0.289,-0.52917 -0.15895,0 -0.59172,-0.23812 -0.96172,-0.52916 -0.91798,-0.72209 -1.77879,-0.6683 -2.37365,0.14831 l -0.49351,0.67747 -3.40722,-1.32847 c -1.87397,-0.73065 -3.507293,-1.26661 -3.629602,-1.19102 -0.12231,0.0756 -0.222382,1.42599 -0.222382,3.0009 v 2.86345 l 3.595994,-1.38772 3.59598,-1.38772 z m -7.288127,-0.96218 c 0,-1.16417 0.0893,-2.11595 0.198437,-2.11507 0.51981,0.004 5.40681,2.05328 5.19882,2.17985 -0.27642,0.16821 -5.13413,2.05189 -5.291517,2.05189 -0.05816,0 -0.10574,-0.9525 -0.10574,-2.11667 z m 7.611567,0.36789 c -0.27005,-0.59269 -0.24336,-0.74252 0.18854,-1.05833 0.74167,-0.54233 1.16885,-0.45178 1.52166,0.32255 0.27005,0.5927 0.24336,0.74253 -0.18854,1.05833 -0.74167,0.54233 -1.16885,0.45178 -1.52166,-0.32255 z m -9.992817,-0.36789 c 0,-0.35278 -0.176389,-0.52917 -0.529167,-0.52917 -0.352777,0 -0.529166,0.17639 -0.529166,0.52917 0,0.35278 0.176389,0.52917 0.529166,0.52917 0.352778,0 0.529167,-0.17639 0.529167,-0.52917 z"
       id="path2"
       sodipodi:nodetypes="csssssscsssccccscsssssssssssss" /><path
       style="fill:#000000"
       d="m 62.419365,136.02819 c 0.969717,-0.20553 2.12869,-0.56274 2.575494,-0.79379 1.221776,-0.6318 2.601457,-2.12934 2.801698,-3.04103 0.123024,-0.56013 0.334259,-0.80939 0.685915,-0.80939 0.331755,0 0.508144,-0.18369 0.508144,-0.52917 0,-0.29104 -0.167972,-0.52916 -0.373272,-0.52916 -0.2053,0 -0.639177,-0.54929 -0.964171,-1.22064 -1.020087,-2.10722 -3.715367,-3.40623 -7.724536,-3.72291 -2.362272,-0.18659 -2.574478,0.0512 -1.22409,1.37167 2.401159,2.34797 2.388011,5.88532 -0.0306,8.23265 -0.565558,0.54889 -0.968958,1.09398 -0.896444,1.21131 0.206,0.33332 2.698881,0.24226 4.641862,-0.16954 z m -2.852357,-1.00831 c 0.997061,-1.30721 1.486108,-2.66206 1.486108,-4.11709 0,-1.66274 -0.398109,-2.83891 -1.392069,-4.11271 l -0.797495,-1.02203 1.425511,0.18194 c 3.891383,0.49668 6.102652,1.72653 6.960891,3.87148 0.546665,1.36625 0.258043,2.43125 -0.976301,3.60248 -1.416922,1.34448 -2.987271,1.95256 -5.970855,2.31208 l -1.411776,0.17012 z m -3.93785,-4.16507 c 0,-2.64583 -0.06615,-3.175 -0.396875,-3.175 -0.330729,0 -0.396875,0.52917 -0.396875,3.175 0,2.64584 0.06615,3.175 0.396875,3.175 0.330729,0 0.396875,-0.52916 0.396875,-3.175 z"
       id="path3"
       sodipodi:nodetypes="ssssssssssssssscsssscssssss" /><path
       style="fill:#000000"
       d="m 162.75821,178.47927 c 1.18248,-0.56113 2.09196,-1.77078 2.51193,-3.341 0.24145,-0.90277 0.46714,-1.25198 0.80914,-1.25198 0.29791,0 0.47429,-0.1968 0.47429,-0.52917 0,-0.34073 -0.17638,-0.52916 -0.49535,-0.52916 -0.36963,0 -0.53646,-0.25713 -0.65735,-1.01312 -0.23264,-1.45482 -1.18493,-2.73212 -2.5536,-3.42509 -1.07099,-0.54225 -1.50237,-0.59457 -4.36349,-0.52916 l -3.175,0.0726 -0.0715,5.4901 -0.0715,5.4901 h 3.33881 c 2.54702,0 3.55577,-0.10294 4.25364,-0.4341 z m -7.05255,-5.14935 v -5.05429 l 3.24114,0.0978 c 3.80609,0.11485 4.31491,0.34445 5.34519,2.41196 1.35293,2.71498 0.61164,5.76893 -1.69659,6.98955 -0.99783,0.52766 -1.53636,0.60926 -4.02094,0.60926 h -2.8688 z m -2.51354,0.0272 c 0,-2.64583 -0.0661,-3.175 -0.39688,-3.175 -0.33073,0 -0.39687,0.52917 -0.39687,3.175 0,2.64583 0.0661,3.175 0.39687,3.175 0.33073,0 0.39688,-0.52917 0.39688,-3.175 z"
       id="path1"
       sodipodi:nodetypes="sssssssscccsssccssssccsssss" /></g></svg>
