<svg width="54" height="42" viewBox="0 0 54 42" fill="currentColor" xmlns="http://www.w3.org/2000/svg">
<path d="M39.1553 40.2174C43.6245 38.0966 47.0619 33.5247 48.6492 27.59C49.5618 24.178 50.4148 22.8581 51.7074 22.8581C52.8333 22.8581 53.5 22.1143 53.5 20.8581C53.5 19.5703 52.8333 18.8581 51.6278 18.8581C50.2308 18.8581 49.6002 17.8863 49.1433 15.029C48.264 9.53048 44.6648 4.70293 39.4919 2.08383C35.4441 0.034379 33.8136 -0.163364 23 0.0838545L10.9999 0.358253L10.4595 41.8582H23.0786C32.7051 41.8582 36.5177 41.469 39.1553 40.2174ZM12.5 1.65251L24.7499 2.02212C39.1351 2.4562 41.0583 3.32397 44.9523 11.1382C50.0657 21.3995 47.2639 32.942 38.5399 37.5554C34.7686 39.5497 32.7332 39.8581 23.3427 39.8581H12.5V1.65251ZM2.99999 20.8581C2.99999 10.8581 2.75016 8.8581 1.49997 8.8581C0.249962 8.8581 0 10.8581 0 20.8581C0 30.8581 0.249811 32.8581 1.49997 32.8581C2.74997 32.8581 2.99999 30.8581 2.99999 20.8581Z"/>
</svg>
