<svg width="54" height="23" viewBox="0 0 54 23" fill="currentColor" xmlns="http://www.w3.org/2000/svg">
<path d="M40.5457 14.0647C43.4477 16.9667 47.5398 17.1379 49.2321 14.4283C49.919 13.3283 51.2728 12.4283 52.2405 12.4283C53.3333 12.4283 54 11.6705 54 10.4283C54 9.3283 53.5085 8.42827 52.9077 8.42827C52.307 8.42827 50.6713 7.52829 49.2728 6.42829C45.8033 3.69913 42.5499 3.90246 40.3016 6.98886L38.4363 9.54939L25.5587 4.52838C18.4759 1.76687 12.3028 -0.258826 11.8405 0.0268687C11.3782 0.312601 11 5.41644 11 11.3689V22.1913L38.1823 11.7015L40.5457 14.0647ZM13 10.4281C13 6.02811 13.3375 2.43085 13.75 2.43417C15.7146 2.44929 34.1852 10.1946 33.3991 10.6729C32.3543 11.3087 13.9945 18.4281 13.3996 18.4281C13.1798 18.4281 13 14.8281 13 10.4281ZM41.7681 11.8186C40.7475 9.57848 40.8483 9.01218 42.4807 7.81857C45.2839 5.76882 46.8984 6.11107 48.2319 9.03768C49.2525 11.2778 49.1516 11.8441 47.5193 13.0377C44.7161 15.0874 43.1016 14.7452 41.7681 11.8186ZM3.99998 10.4281C3.99998 9.09478 3.33331 8.42809 1.99997 8.42809C0.666643 8.42809 0 9.09478 0 10.4281C0 11.7615 0.666643 12.4282 1.99997 12.4282C3.33331 12.4282 3.99998 11.7615 3.99998 10.4281Z"/>
</svg>
