<svg width="54" height="42" viewBox="0 0 54 42" fill="currentColor" xmlns="http://www.w3.org/2000/svg">
<path d="M28.6638 40.4484C32.3288 39.6716 36.7092 38.3215 38.3979 37.4483C43.0157 35.0604 48.2302 29.4004 48.987 25.9546C49.452 23.8376 50.2504 22.8955 51.5795 22.8955C52.8333 22.8955 53.5 22.2012 53.5 20.8955C53.5 19.7955 52.8652 18.8955 52.0892 18.8955C51.3133 18.8955 49.6734 16.8194 48.4451 14.2821C44.5897 6.31775 34.4028 1.40812 19.25 0.211217C10.3217 -0.494006 9.51969 0.404713 14.6235 5.39547C23.6988 14.2697 23.6491 27.6392 14.5079 36.511C12.3703 38.5855 10.8457 40.6457 11.1197 41.0892C11.8983 42.3489 21.3202 42.0048 28.6638 40.4484ZM17.8832 36.6375C21.6516 31.6968 23.5 26.5761 23.5 21.0768C23.5 14.7924 21.9953 10.3471 18.2386 5.53269L15.2245 1.66992L20.6122 2.35756C35.3198 4.23477 43.6774 8.88304 46.9211 16.9899C48.9873 22.1537 47.8964 26.1789 43.2312 30.6056C37.8759 35.6871 31.9407 37.9853 20.6642 39.3441L15.3283 39.9871L17.8832 36.6375ZM3 20.8955C3 10.8955 2.74999 8.89546 1.50001 8.89546C0.250009 8.89546 0 10.8955 0 20.8955C0 30.8955 0.250024 32.8955 1.50001 32.8955C2.75001 32.8955 3 30.8955 3 20.8955Z"/>
</svg>
